<?xml version="1.0" encoding="utf-8"?>
<!-- Uploaded to: SVG Repo, www.svgrepo.com, Generator: SVG Repo Mixer Tools -->
<svg width="800px" height="800px" viewBox="0 0 192 192" xmlns="http://www.w3.org/2000/svg" fill="none">

<g clip-path="url(#a)">

<path stroke="#000000" stroke-linecap="round" stroke-linejoin="round" stroke-width="12" d="M96 22v30m24-30v36m-42 76v24a11.998 11.998 0 0 0 12 12h12c3.183 0 6.235-1.264 8.485-3.515A11.996 11.996 0 0 0 114 158v-24M48 96v20a11.998 11.998 0 0 0 12 12h72c3.183 0 6.235-1.264 8.485-3.515A11.996 11.996 0 0 0 144 116V96.149L48 96Zm0 0V46a24 24 0 0 1 24-24h72v74H48Z"/>

</g>

<defs>

<clipPath id="a">

<path fill="#ffffff" d="M0 0h192v192H0z"/>

</clipPath>

</defs>

</svg>